Coordinates
version=1
nRows=16
nColumns=40
inDegrees=yes

Units are S.I. units (second, meters, Newtons, ...)
If the header above contains a line with 'inDegrees', this indicates whether rotational values are in degrees (yes) or radians (no).

endheader
time	pelvis_tilt	pelvis_list	pelvis_rotation	pelvis_tx	pelvis_ty	pelvis_tz	hip_flexion_r	hip_adduction_r	hip_rotation_r	knee_angle_r	knee_angle_r_beta	ankle_angle_r	subtalar_angle_r	mtp_angle_r	hip_flexion_l	hip_adduction_l	hip_rotation_l	knee_angle_l	knee_angle_l_beta	ankle_angle_l	subtalar_angle_l	mtp_angle_l	lumbar_extension	lumbar_bending	lumbar_rotation	arm_flex_r	arm_add_r	arm_rot_r	elbow_flex_r	pro_sup_r	wrist_flex_r	wrist_dev_r	arm_flex_l	arm_add_l	arm_rot_l	elbow_flex_l	pro_sup_l	wrist_flex_l	wrist_dev_l
      1.00000000	     15.90971092	     -0.93391538	      6.16030256	     -0.26565160	      1.06910752	     -1.06805940	     11.60452434	      0.00869181	     -3.22541873	      1.71813617	      0.02998713	    -10.98370083	      0.00000000	      0.00000000	     -8.72454977	      0.68692862	     -5.09336343	     18.84807704	      0.32896100	     -1.61599719	      0.00000000	      0.00000000	    -23.90231434	     -1.11413357	     -3.09393276	     51.65622314	     -5.42205534	     19.32258088	     50.25240359	     85.70351445	      0.00000000	      0.00000000	     53.95145232	    -23.18296895	     37.05588575	     65.07995685	     86.71879268	      0.00000000	      0.00000000
      1.00500000	     15.88979027	     -0.93421521	      6.14027885	     -0.26594078	      1.06906399	     -1.06798547	     11.72743434	      0.00607019	     -3.16573040	      1.73848634	      0.03034231	    -10.95014270	      0.00000000	      0.00000000	     -8.66373906	      0.69380065	     -5.14653328	     18.89639961	      0.32980439	     -1.53563455	      0.00000000	      0.00000000	    -23.88470602	     -1.14681466	     -3.13436146	     52.14989277	     -5.31689341	     19.56860884	     50.06204300	     85.59726160	      0.00000000	      0.00000000	     54.38745233	    -23.20325971	     37.30637208	     65.22248453	     86.86710868	      0.00000000	      0.00000000
      1.01000000	     16.01886786	     -1.06447942	      6.20335517	     -0.26620526	      1.06917189	     -1.06799999	     11.64604175	      0.14225274	     -3.32900702	      1.60480074	      0.02800906	    -11.34605710	      0.00000000	      0.00000000	     -8.77717583	      0.54402125	     -5.02076981	     18.87775867	      0.32947904	     -1.55258799	      0.00000000	      0.00000000	    -23.98758843	     -0.98855882	     -3.11037489	     52.64659079	     -5.33772841	     19.85337816	     49.88345670	     84.90169976	      0.00000000	      0.00000000	     54.75021388	    -23.02678562	     37.43204955	     65.27452099	     86.36546001	      0.00000000	      0.00000000
      1.01500000	     15.93843505	     -1.08204682	      6.17771751	     -0.26649611	      1.06906784	     -1.06793395	     11.88333718	      0.14223138	     -3.33881221	      1.73740685	      0.03032347	    -11.15234396	      0.00000000	      0.00000000	     -8.65585806	      0.54169417	     -5.05198819	     18.90564666	      0.32996578	     -1.54794816	      0.00000000	      0.00000000	    -23.88583288	     -1.00214340	     -3.09329648	     53.09264500	     -5.17711318	     19.80515469	     49.51745026	     85.88818114	      0.00000000	      0.00000000	     55.11191942	    -22.89617849	     37.51529058	     65.28451434	     86.70951761	      0.00000000	      0.00000000
      1.02000000	     15.93144465	     -1.12081881	      6.22168672	     -0.26674408	      1.06904043	     -1.06799557	     11.98759688	      0.16648415	     -3.46425906	      1.74528004	      0.03046088	    -11.03349114	      0.00000000	      0.00000000	     -8.62033968	      0.50761197	     -4.95803021	     18.91486296	      0.33012664	     -1.47946038	      0.00000000	      0.00000000	    -23.85536084	     -0.96676918	     -3.16334185	     53.54856326	     -5.12678935	     20.13752225	     49.28226252	     85.42325919	      0.00000000	      0.00000000	     55.46460284	    -22.78634751	     37.57562881	     65.32669429	     86.90125009	      0.00000000	      0.00000000
      1.02500000	     15.91844095	     -1.16116335	      6.18646332	     -0.26710041	      1.06897212	     -1.06786952	     12.10949597	      0.20819760	     -3.41918735	      1.77601012	      0.03099722	    -11.00373354	      0.00000000	      0.00000000	     -8.53719266	      0.47104620	     -4.99803376	     19.00499106	      0.33169967	     -1.41098177	      0.00000000	      0.00000000	    -23.84494957	     -0.95286449	     -3.12267037	     54.03823165	     -5.03911255	     20.22504426	     49.00717985	     85.69112569	      0.00000000	      0.00000000	     55.84177675	    -22.64507977	     37.63678640	     65.37479754	     86.75493130	      0.00000000	      0.00000000
      1.03000000	     15.86279721	     -1.18139201	      6.16208505	     -0.26745732	      1.06883058	     -1.06782855	     12.27045593	      0.21433794	     -3.33519732	      1.76396524	      0.03078700	    -11.03130866	      0.00000000	      0.00000000	     -8.38972240	      0.45139942	     -5.07244911	     19.14668637	      0.33417272	     -1.44119126	      0.00000000	      0.00000000	    -23.78904612	     -0.95860890	     -3.06914583	     54.47498006	     -5.03516765	     20.33055995	     48.80880742	     85.95260619	      0.00000000	      0.00000000	     56.23032020	    -22.55911539	     37.90528024	     65.49946058	     86.66100900	      0.00000000	      0.00000000
      1.03500000	     15.86340107	     -1.23205780	      6.15140752	     -0.26787146	      1.06871718	     -1.06776889	     12.35243568	      0.26515764	     -3.21596357	      1.73262779	      0.03024006	    -11.02466285	      0.00000000	      0.00000000	     -8.31327296	      0.39859145	     -5.07435323	     19.23750690	      0.33575784	     -1.38728767	      0.00000000	      0.00000000	    -23.78553481	     -0.92182278	     -3.06793548	     54.94456294	     -4.97330340	     20.58602699	     48.60722815	     85.69314240	      0.00000000	      0.00000000	     56.59942878	    -22.48927470	     38.04346328	     65.60314014	     86.70114641	      0.00000000	      0.00000000
      1.04000000	     15.91056914	     -1.24466215	      6.19532841	     -0.26821628	      1.06867520	     -1.06779779	     12.38173475	      0.27919731	     -3.34359151	      1.68683034	      0.02944074	    -11.03889249	      0.00000000	      0.00000000	     -8.27946621	      0.37143670	     -5.05079927	     19.36533744	      0.33798890	     -1.35636751	      0.00000000	      0.00000000	    -23.84065902	     -0.90191863	     -3.06934754	     55.38304359	     -4.90215151	     20.62430734	     48.37145244	     85.92270328	      0.00000000	      0.00000000	     57.02372407	    -22.33873659	     38.25910048	     65.56941360	     86.66099958	      0.00000000	      0.00000000
      1.04500000	     15.84193781	     -1.32935964	      6.11821083	     -0.26861660	      1.06843000	     -1.06756437	     12.56726416	      0.37592035	     -3.21196125	      1.70483581	      0.02975500	    -11.02488166	      0.00000000	      0.00000000	     -8.11156146	      0.29736821	     -5.05236220	     19.49139269	      0.34018898	     -1.24903701	      0.00000000	      0.00000000	    -23.76969911	     -0.87010694	     -2.95943629	     55.83798962	     -4.91239289	     20.88816190	     48.17695938	     85.86517708	      0.00000000	      0.00000000	     57.46565784	    -22.29969783	     38.60519504	     65.64393012	     86.74306627	      0.00000000	      0.00000000
      1.05000000	     15.85102293	     -1.33743721	      6.03647658	     -0.26895757	      1.06841420	     -1.06742290	     12.62008815	      0.39920334	     -2.92638520	      1.66650238	      0.02908595	    -10.89161121	      0.00000000	      0.00000000	     -8.09463317	      0.30518267	     -5.13938578	     19.50400032	      0.34040902	     -1.30311076	      0.00000000	      0.00000000	    -23.78505650	     -0.91408052	     -2.84524317	     56.24798113	     -4.89270241	     21.04930132	     47.96909032	     85.48036383	      0.00000000	      0.00000000	     57.81362291	    -22.07062108	     38.65933428	     65.61941136	     86.72275982	      0.00000000	      0.00000000
      1.05500000	     15.85086866	     -1.38435956	      5.94725400	     -0.26935607	      1.06828754	     -1.06720847	     12.73199370	      0.46760026	     -2.75976635	      1.68164085	      0.02935017	    -10.83675657	      0.00000000	      0.00000000	     -8.02181374	      0.25505747	     -5.24315353	     19.61936153	      0.34242246	     -1.18261552	      0.00000000	      0.00000000	    -23.78776427	     -0.90311516	     -2.76898151	     56.66886918	     -4.77800481	     21.14941950	     47.74434908	     85.58097981	      0.00000000	      0.00000000	     58.19639480	    -22.01614063	     38.82262973	     65.62839673	     86.75510424	      0.00000000	      0.00000000
      1.06000000	     15.89197956	     -1.44094079	      5.95372276	     -0.26962641	      1.06824817	     -1.06716411	     12.78089281	      0.53629517	     -2.90046019	      1.68122138	      0.02934285	    -10.89955647	      0.00000000	      0.00000000	     -7.98447740	      0.18596303	     -5.20228508	     19.73127488	      0.34437571	     -1.16763591	      0.00000000	      0.00000000	    -23.81807035	     -0.84889512	     -2.70693181	     57.06771848	     -4.76790029	     21.27113920	     47.53265944	     85.63077297	      0.00000000	      0.00000000	     58.50921040	    -21.81691013	     38.84525629	     65.60458514	     86.65607298	      0.00000000	      0.00000000
      1.06500000	     15.86735910	     -1.48116346	      5.92531441	     -0.26998987	      1.06803290	     -1.06707538	     12.87403679	      0.58727916	     -2.75045043	      1.64382405	      0.02869014	    -10.78620060	      0.00000000	      0.00000000	     -7.82462097	      0.13701631	     -5.26612721	     19.97099292	      0.34855958	     -1.04747609	      0.00000000	      0.00000000	    -23.81028459	     -0.83621767	     -2.68251910	     57.48998255	     -4.71109598	     21.49873195	     47.38329109	     85.77434015	      0.00000000	      0.00000000	     58.95293182	    -21.82661997	     39.20304736	     65.76104914	     86.65761489	      0.00000000	      0.00000000
      1.07000000	     15.91693902	     -1.66890182	      5.91666758	     -0.27038622	      1.06794899	     -1.06702303	     12.89171241	      0.79394771	     -2.69544100	      1.55966790	      0.02722134	    -11.05166619	      0.00000000	      0.00000000	     -7.75873399	     -0.06790049	     -5.26220761	     20.13225030	      0.35137405	     -0.92119633	      0.00000000	      0.00000000	    -23.83276231	     -0.64075497	     -2.52916418	     57.89441292	     -4.68855684	     21.62580047	     47.14000686	     85.29771808	      0.00000000	      0.00000000	     59.22194142	    -21.44830894	     39.04189218	     65.52142728	     86.51802073	      0.00000000	      0.00000000
      1.07500000	     15.82806329	     -1.60969581	      5.83874482	     -0.27080675	      1.06759225	     -1.06691771	     13.11045797	      0.72691302	     -2.48968589	      1.67807731	      0.02928797	    -10.73925635	      0.00000000	      0.00000000	     -7.55407762	      0.02006275	     -5.28031295	     20.33042182	      0.35483280	     -0.80337733	      0.00000000	      0.00000000	    -23.78729332	     -0.74520810	     -2.50331092	     58.29683543	     -4.65119878	     21.80772416	     46.98124540	     85.61488294	      0.00000000	      0.00000000	     59.77246603	    -21.59174672	     39.72737025	     65.72961350	     86.63152639	      0.00000000	      0.00000000
